<svg width="48" height="48" viewBox="0 0 65 64" fill="none" xmlns="http://www.w3.org/2000/svg">
    <path d="M42.4201 31.272L50.0761 23.808C50.4001 23.484 50.5201 23.016 50.3761 22.584C50.2321 22.152 49.8601 21.828 49.4041 21.768L38.8201 20.232C38.5561 20.196 38.3281 20.028 38.2201 19.8L33.4921 10.212C33.0841 9.39601 31.7401 9.39601 31.3441 10.212L26.6161 19.8C26.4961 20.04 26.2681 20.196 26.0161 20.244L15.4321 21.78C14.9761 21.84 14.6041 22.164 14.4601 22.596C14.3161 23.028 14.4361 23.508 14.7601 23.82L22.4161 31.284C22.6081 31.464 22.6921 31.728 22.6441 31.992L20.8321 42.528C20.7601 42.984 20.9401 43.428 21.3121 43.704C21.5161 43.86 21.7681 43.932 22.0201 43.932C22.2121 43.932 22.4041 43.884 22.5841 43.788L32.0521 38.808C32.2921 38.688 32.5681 38.688 32.7961 38.808L42.2641 43.788C42.6721 44.004 43.1641 43.968 43.5241 43.692C43.8961 43.428 44.0761 42.972 44.0041 42.516L42.1921 31.98C42.1441 31.716 42.2281 31.452 42.4201 31.272Z"
          fill="#FF8200"/>
</svg>
