<svg width="48" height="48" viewBox="0 0 65 64" fill="none" xmlns="http://www.w3.org/2000/svg">
    <g transform="translate(8, 3)">
        <path d="M24.002 7.37598C24.2611 7.37598 24.4741 7.4805 24.5898 7.63965L24.6328 7.71191L29.3564 17.2891V17.29C29.5378 17.6729 29.9109 17.9425 30.3369 18.002V18.0029L40.9209 19.5391L40.9268 19.54C41.1826 19.5737 41.4034 19.7579 41.4902 20.0186C41.5713 20.2622 41.5067 20.5331 41.3105 20.7295L33.666 28.1836C33.3461 28.4838 33.2112 28.9204 33.2881 29.3447L35.0996 39.877C35.1408 40.1539 35.0296 40.4141 34.8232 40.5605L34.8154 40.5654L34.8086 40.5713C34.609 40.7243 34.3271 40.7497 34.0859 40.6221L34.085 40.6211L24.6172 35.6416C24.2872 35.4679 23.9045 35.4498 23.5615 35.5742L23.417 35.6367L23.4072 35.6416L13.9395 40.6211L13.9375 40.623C13.8276 40.6816 13.7158 40.708 13.6084 40.708C13.4491 40.708 13.3082 40.6626 13.2041 40.583L13.1982 40.5781C12.9784 40.4149 12.8728 40.159 12.9131 39.8887L14.7256 29.3525L14.7246 29.3516C14.7902 28.9818 14.696 28.6036 14.458 28.3145L14.3467 28.1953L6.69727 20.7383L6.69531 20.7354L6.63086 20.6641C6.49473 20.4879 6.45008 20.2477 6.52246 20.0303C6.60934 19.7696 6.83011 19.5854 7.08594 19.5518L7.0918 19.5508L17.6768 18.0146L17.6875 18.0137L17.6982 18.0107C18.0878 17.9365 18.4549 17.6924 18.6514 17.2998L18.6533 17.2969L23.3809 7.70898L23.3818 7.70605C23.4758 7.51237 23.7054 7.37598 24.002 7.37598Z"
              fill="#FBFBFB" stroke="#DFDFDF"/>
    </g>
</svg>
